<?xml version="1.0" encoding="utf-8"?>
<!-- Generator: Adobe Illustrator 23.0.3, SVG Export Plug-In . SVG Version: 6.00 Build 0)  -->
<svg version="1.1" id="Calque_1" xmlns="http://www.w3.org/2000/svg" xmlns:xlink="http://www.w3.org/1999/xlink" x="0px" y="0px"
	 viewBox="0 0 512 512" style="enable-background:new 0 0 512 512;" xml:space="preserve">
<style type="text/css">
	.st0{clip-path:url(#SVGID_2_);fill:#CB2029;}
	.st1{fill:#CB2029;}
</style>
<g>
	<defs>
		<rect id="SVGID_1_" width="512" height="512"/>
	</defs>
	<clipPath id="SVGID_2_">
		<use xlink:href="#SVGID_1_"  style="overflow:visible;"/>
	</clipPath>
	<path class="st0" d="M255.7,450.7c-107.8,0-195.5-87.6-195.5-195.3c0-107.7,87.7-195.3,195.5-195.3c107.8,0,195.5,87.6,195.5,195.3
		C451.2,363.1,363.5,450.7,255.7,450.7 M255.7,95.5c-88.2,0-160,71.7-160,159.8c0,88.1,71.8,159.8,160,159.8s160-71.7,160-159.8
		C415.7,167.2,343.9,95.5,255.7,95.5"/>
</g>
<path class="st1" d="M392.6,244.9c-5.1-10.2-11.5-23-24.1-23c-12.5,0-18.9,12.7-24.1,23c-4.8,9.5-7.5,14.5-13.5,14.5
	c-6,0-8.7-5-13.5-14.5c-5.1-10.2-11.5-23-24.1-23s-18.9,12.7-24.1,23c-4.8,9.5-7.5,14.5-13.5,14.5c-6,0-8.7-5-13.5-14.5
	c-5.1-10.2-11.5-23-24.1-23s-18.9,12.7-24.1,23c-4.8,9.5-7.5,14.5-13.5,14.5c-6,0-8.7-5-13.5-14.5c-5.1-10.2-11.5-23-24.1-23
	c-12.5,0-18.9,12.1-24,22.3c0,0-3.9,8.7-5.6,12.8c-1.7,4.1-8.3,19.7-2.3,27.2c3.4,4.2,8.3-1.8,11.1-6.2c2.1-3.4,7.1-13.2,7.1-13.2
	c5.1-9.1,7.8-14,13.7-14c6,0,8.7,5,13.5,14.5c5.1,10.2,11.5,23,24.1,23c12.5,0,18.9-12.7,24.1-23c4.8-9.5,7.5-14.5,13.5-14.5
	s8.7,5,13.5,14.5c5.1,10.2,11.5,23,24.1,23c12.5,0,18.9-12.7,24.1-23c4.8-9.5,7.5-14.5,13.5-14.5c6,0,8.7,5,13.5,14.5
	c5.1,10.2,11.5,23,24.1,23s18.9-12.7,24.1-23c4.8-9.5,7.5-14.5,13.5-14.5c6,0,8.7,5,13.5,14.5c0,0,2.2,4.3,5.4,9.9
	c1.4,2.3,6.6,11.1,11.2,10.8c4.1-0.3,5.6-13.3,1-24.7C396.5,253.7,392.6,244.9,392.6,244.9z"/>
</svg>
